<?xml version="1.0"?>
<!-- Original Generator: Adobe Illustrator 15.0.2, SVG Export Plug-In . SVG Version: 6.00 Build 0)  -->
<!-- Edited with SVG-edit - http://svg-edit.googlecode.com/ -->
<!-- Manual edits by Charlie Jonas (devel@charliejonas.co.uk) -->
<!DOCTYPE svg PUBLIC "-//W3C//DTD SVG 1.1//EN" "http://www.w3.org/Graphics/SVG/1.1/DTD/svg11.dtd">
<svg width="907" height="185" xmlns="http://www.w3.org/2000/svg" xmlns:svg="http://www.w3.org/2000/svg">
	<g>
		<path id="svg_2" d="m187.539673,0.024185c0.273987,2.098999 -2.309021,2.695999 -1.599976,5.76001c4.322998,0.64299 5.429993,-1.930008 7.359985,-3.680008c2.278992,0.091995 3.68396,-0.690002 5.440002,-1.119995c0.283997,1.688995 0.031982,3.914001 1.119995,4.800003c1.643982,0.149994 2.846985,-0.140015 4,-0.480011c0.778015,0.626007 -0.018982,2.24501 0.47998,3.360001c0.971008,1.417007 4.156006,0.313004 5.600037,0.479996c0.617981,0.327011 0.385986,1.044006 0.639954,1.600006c0.605042,1.328003 2.307007,2.233002 2.080017,4.320007c0.838013,0.360992 2.311035,0.107986 3.200012,0c2.945007,4.028992 -3.79303,5.904999 -1.440002,10.23999c2.596985,0.488007 4.189026,-2.082001 5.599976,-3.679993c2.445007,-2.768997 4.44104,-4.883011 7.040039,-7.680008c0.901001,-0.968994 2.742981,-3.591995 3.679993,-3.679993c1.622009,-0.152008 1.998962,2.229996 3.359985,2.559998c-0.195007,1.347 -0.301025,3.472 0,4.800003c1.970032,0.724991 3.41803,-0.408005 4.320007,-1.279999c1.593018,0.060989 3.455017,-0.14801 4.799988,0.159988c-1.224976,5.24501 -6.622009,7.968002 -5.119995,14.880005c2.859985,1.104004 3.424011,-1.302994 4.47998,-2.880005c0.882019,-1.316986 2.194031,-2.626999 3.200012,-4c1.082031,-1.47699 2.203979,-2.932999 3.52002,-3.519989c-0.627014,4.863998 4.72699,2.535995 6.880005,1.759995c0.34198,0.404999 0.221985,1.270996 0.47998,1.759995c1.429016,0.80101 1.866028,2.083008 3.200012,3.520004c0.524963,0.565002 1.976013,1.449005 2.080017,2.080002c0.180969,1.093994 -1.118042,2.337006 -1.440002,3.360001c-0.343018,1.089005 -0.322998,2.647003 -0.800049,4.160004c-0.567993,1.800995 -1.06897,2.994003 -1.119995,5.119995c-0.962952,0.811996 -0.546997,2.619003 -0.959961,4.479996c-0.452026,2.040009 -2.007996,5.053009 -0.799988,7.840012c3.406982,1.941986 4.315979,-0.938004 6.079956,-3.040009c1.026001,-1.222992 2.549011,-2.339996 3.200012,-3.199997c0.601013,-0.794006 0.827026,-1.936996 1.280029,-2.559998c1.431946,-1.969009 4.008972,-3.822006 5.759949,-5.76001c2.709045,-3 5.166016,-4.526001 7.200012,-7.360001c2.559998,-0.799988 3.299988,-3.418991 5.600037,-4.479996c1.169983,1.335999 -0.314026,5.326996 1.279968,6.240005c4.238037,0.557999 6.121033,-1.238998 8,-3.040009c0.629028,1.665009 0.114014,4.473999 1.119995,5.76001c1.78302,1.013992 3.952026,-0.425003 4.960022,-0.639999c0.417969,1.645996 -1.742981,2.687988 -2.080017,4.319992c-0.606995,2.943008 0.458008,5.411011 3.840027,4.480011c1.984009,-0.546005 2.143982,-3.859009 3.679993,-4.640015c1.302979,0.188004 2.463013,1.407013 4.47998,0.960007c2.447998,-0.542999 4.330994,-4.123001 5.76001,-6.720001c1.606018,-2.918991 2.815002,-6.007996 4.799988,-7.520004c1.134033,-2.278992 2.416992,-4.409988 4.160034,-6.079987c1.130005,0.256989 1.915955,0.856995 3.199951,0.959991c-0.878967,1.358994 -1.427979,4.557007 0.320007,5.119995c2.106995,0.678009 4.518005,-2.416992 5.920044,-0.479996c-0.480042,1.643005 -1.292053,4.147003 -0.480042,6.080002c3.277039,1.134995 3.374023,-2.272003 5.600037,-2.720001c0.43396,2.391006 -1.065002,4.764008 -1.920044,7.040009c-0.855957,2.278 -1.920959,4.62999 -3.039978,6.559998c0.666016,3.412994 -5.664001,9.508987 0.799988,9.599991c0.838013,-1.61499 1.600037,-3.306992 2.720032,-4.639999c-0.095032,-0.332001 0.197998,-1.050995 -0.160034,-1.119995c0.80304,-1.790009 1.815002,-3.643005 2.880005,-5.600006c2.05304,-3.774994 2.902039,-8.294998 6.880005,-9.599991c0.356995,1.136002 0.065002,2.92099 0.160034,4.319992c1.497986,1.819 3.832947,0.134003 5.439941,-0.479996c1.295044,1.235001 3.32605,0.677994 4.800049,0c-0.065002,2.369003 -3.242004,6.072006 -0.960022,8.800003c2.271973,0.278992 4.549011,-1.498001 5.280029,0.800003c-1.689026,2.134995 -2.555054,5.061996 -3.840027,8c-1.265015,2.893997 -2.991028,5.541992 -4.479004,8.639999c-0.73999,1.541 -1.70697,3.398987 -1.919983,4.639999c-0.093994,0.546997 0.112976,1.080994 0,1.599991c-0.312012,1.430008 -1.650024,3.347 -0.799988,5.76001c5.630981,0.828995 5.599976,-5.38501 9.919983,-6.400009c0.966003,2.376007 -2.015991,4.891006 -0.640015,7.680008c4.018982,1.944992 4.901001,-2.598999 6.720032,-3.360001c-1.130005,4.435989 -2.949036,8.429993 -5.600037,12c-1.572998,2.117996 -3.164978,3.89299 -2.399963,7.679993c3.315002,0.970001 4.485962,-1.563995 5.599976,-3.839996c2.22998,-4.557007 6.374023,-8.289993 8.47998,-12.160004c0.640015,0 1.280029,0 1.920044,0c0.201965,0.710007 -0.322021,2.802002 0.319946,3.520004c2.90802,0.768005 3.921021,-1.839005 5.600037,-3.199997c0.666016,0.560989 0.911011,1.541992 1.279968,2.399994c-3.151001,4.848999 -8.266968,8.518997 -12.479004,13.119995c-2.960999,3.233994 -5.646973,7.143021 -8.639954,10.560013c-0.975037,1.113007 -2.283997,2.087982 -3.040039,3.199982c-0.697998,1.027008 -1.100952,2.105011 -1.919983,3.200012c-0.705994,0.941986 -1.296021,2.114014 -2.080017,3.040009c-1.570007,1.854004 -3.680969,3.562988 -4.639954,5.600006c-0.221008,0.469971 -0.245056,0.983978 -0.479004,1.438995c-1.227051,2.377991 -3.51001,4.048981 -4.960022,6.561005c-1.413025,2.446991 -2.614014,4.860992 -4.47998,6.878998c-0.322021,2.237976 -1.923035,3.196991 -2.23999,5.440002c-3.41803,3.141998 -4.606018,8.513977 -7.200012,12.478973c-0.705017,3.348999 -3.064026,5.042023 -4.160034,8c-0.055969,2.725006 -1.698975,4.815002 -2.559998,7.199005c-0.734985,2.035004 -1.250977,4.238007 -2.880005,5.119995c-0.182007,-0.682983 0.179016,-1.858002 -0.320007,-2.559998c-0.68396,-0.773987 -1.570984,-0.71698 -2.399963,-1.440002c-0.713013,-0.621979 -0.908997,-1.733978 -1.600037,-2.238983c-1.047974,-0.768005 -3.873962,-1.096008 -5.599976,-0.640991c-1.25,0.329987 -1.117981,1.528992 -2.400024,2.079987c-0.415955,-1.184998 0.180054,-3.378998 -0.47998,-4.320007c-3.669983,-1.458984 -5.447998,1.536011 -7.839966,2.399994c0.213989,-2.187988 -1.39801,-2.547974 -2.400024,-3.519989c-2.879028,-0.53299 -3.755005,0.937988 -5.440002,1.600006c-0.200012,-3.373016 -0.249023,-6.897003 -2.400024,-8.319c-4.822998,-0.709991 -6.079956,3.894989 -8.159973,7.039001c-1.778015,2.687988 -2.840027,5.703979 -4.159973,7.681c-0.79303,1.187988 -2.011047,1.472992 -1.920044,3.359009c-2.471008,2.790985 -2.68396,6.883972 -5.440002,9.278992c-0.407959,-0.34201 -0.609009,-1.654999 -1.440002,-2.07901c-0.407959,-0.208984 -1.238953,0.009003 -1.76001,-0.160004c-2.017944,-0.653992 -2.664978,-2.756989 -5.279968,-1.440002c-0.671021,-1.248993 -0.804993,-3.035004 -1.280029,-4.479004c-1.317993,-1.375977 -4.281982,-0.712982 -5.599976,0.160004c-0.651001,-0.948975 -1.038025,-2.161987 -1.440002,-3.359985c-1.617981,-0.894012 -3.651978,0.050995 -4.960022,0.47998c-0.873962,-1.93399 -0.977966,-4.119995 -3.839966,-3.359985c-1.199036,0.317993 -1.548035,1.940002 -2.880005,2.23999c-0.304016,-2.04599 0.455994,-6.643982 -0.320007,-9.440002c-5.716003,-2.367981 -7.038025,3.416016 -9.599976,5.761017c-0.69104,-2.989014 0.138,-7.498016 -4.640015,-6.399994c-2.505981,1.643982 -2.947021,5.322998 -4.799988,8.160004c-2.562988,3.924988 -5.01001,7.618988 -7.52002,11.679993c-1.215027,1.964996 -1.945984,4.319 -3.840027,5.759979c-2.35498,-1.377991 -1.208984,-6.256989 -5.759949,-5.439972c-0.854004,-1.065002 -0.629028,-3.210022 -1.600037,-4.159027c-3.60498,-0.672974 -3.580994,2.285004 -5.919006,2.880005c-1.041992,-1.625 -0.078979,-5.255005 -0.639954,-7.359985c-0.417053,-0.649017 -1.187012,-0.946014 -2.400024,-0.800018c-1.697998,-3.755981 -5.809021,-1.005981 -8.47998,0c-0.729004,-1.228973 0.242981,-3.527985 -0.320007,-5.119995c-1.051025,-1.828979 -4.153992,-1.60498 -6.559998,-2.078979c-0.770996,-0.936005 -0.598999,-2.814026 -1.600037,-3.521027c-2.223999,-0.395996 -3.877991,0.584015 -4.959961,0.800018c-0.442993,-1.856995 -0.098022,-3.520996 -1.119995,-4.800018c-4.649048,-1.108978 -5.175049,3.095001 -6.400024,5.920013c-1.111023,2.562988 -1.812988,4.615997 -3.200012,5.920013c-1.148987,-1.061005 -2.149963,-2.144012 -4.159973,-1.600006c-1.991028,0.537994 -2.374023,4.294006 -4.320007,4.639984c0.151978,-3.404999 -3.567993,-4.704987 -6.400024,-5.119995c-0.278992,-2.333008 -1.213989,-4.013 -3.839966,-4c-0.625,-0.975006 -0.960022,-2.238983 -1.920044,-2.880005c-3.93396,-0.681 -4.043945,2.463013 -6.719971,3.040009c-0.450989,-3.229004 0.627991,-8.841003 -4.160004,-7.199005c-0.811005,-1.002991 -0.669006,-2.958008 -1.76001,-3.681c-1.559998,-0.47699 -3.221985,-0.002991 -4.319977,0.480011c-0.614014,-1.354004 0.079987,-3.722015 -0.160004,-6.080017c-3.65802,-3.360992 -5.910004,0.687012 -7.679993,3.200012c-1.290009,1.833008 -2.552002,2.601013 -3.680023,4.158997c-2.263,3.127991 -3.649994,6.338013 -6.079987,8.160004c-1.087006,3.779999 -4.578003,7.067993 -6.720001,10.399994c-0.761993,1.184998 -1.205994,2.407013 -1.920013,3.679993c-0.675995,1.205017 -1.841003,2.335999 -2.880005,4c-0.587982,0.94101 -1.778992,3.705017 -2.879974,3.840027c-1.632019,0.198975 -2.864014,-2.41803 -4,-2.721008c0.056,-2.402008 0.156982,-4.851013 -1.440002,-5.600006c-1.162018,0.010986 -2.468994,-0.122009 -3.200012,0.320007c-0.122986,-2.253021 -3.584991,-1.558014 -4.480011,-0.960022c-0.444977,-1.148987 0.615021,-1.79599 0.800018,-2.720001c0.115997,-0.579987 -0.15799,-1.28299 0,-1.919983c0.729004,-2.937988 5.813995,-5.964996 4.160004,-10.23999c-0.623993,-0.335999 -1.839996,-0.080017 -2.720001,-0.160004c-1.803009,0.811005 -2.229004,2.997986 -3.200012,4.640991c-2.713989,0.806 -3.518005,3.520996 -6.23999,4.319c0.319,-2.878998 -1.666992,-3.453003 -3.839996,-3.839996c-0.420013,-1.5 -0.494019,-3.346008 -1.920013,-3.839996c-2.98999,-0.582001 -4.320007,1.321991 -6.079987,1.440002c-0.377014,-0.755005 0.48999,-1.693024 0.639984,-2.881012c0.123016,-0.971008 -0.074982,-2.053009 0,-3.039001c0.139008,-1.837982 1.697998,-4.664001 0.160004,-6.23999c-0.622009,-0.636993 -2.666992,-0.830994 -3.679993,-0.320007c-2.080994,1.049011 -4.139008,3.931 -5.76001,6.23999c-3.257996,4.641998 -6.721985,9.421021 -9.440002,14.559998c-1.428986,2.701019 -2.605988,5.757019 -4.959991,7.040009c-0.55899,-3.559998 0.44101,-6.747009 -4.480011,-5.76001c-1.994995,0.400024 -3.434998,3.025024 -5.438995,3.199005c-2.119995,-0.651001 -0.105988,-4.660004 -1.600006,-6.078979c-3.096985,-0.637024 -3.86499,1.884003 -5.919983,1.759979c-0.679993,-1.28299 1.191986,-2.30899 0.799988,-4.319977c1.574005,-2.27002 4.473999,-4.055023 3.52002,-8.319c-0.322998,-0.872009 -2.265015,-0.723999 -3.200012,-0.480011c-2.06601,1.666992 -2.112,5.354004 -4.799988,6.399994c-1.395996,-0.471008 -1.169006,-2.563995 -1.920013,-3.679993c-2.031982,-0.652008 -3.604004,0.415009 -4.959991,0.958984c-0.093018,-1.292999 0.195007,-2.967987 -0.160004,-3.998993c-3.141998,-0.841003 -5.186005,0.779999 -7.679993,1.119995c0.266998,-3.131989 2.806,-5.990997 3.679993,-8.640991c0.825989,-2.501984 0.960999,-4.984985 3.040009,-6.559998c0.394989,-4.513 3.622986,-6.190002 4.47998,-10.239014c3.424011,-3.988983 4.731018,-10.095978 8,-14.23999c0.751007,-2.667999 1.152008,-5.059998 2.080017,-7.359009c1.075989,-2.665985 3.742981,-5.023987 2.079987,-9.119995c-4.312988,-0.738983 -4.467987,2.679016 -7.199982,3.520996c0.332001,-2.289001 1.721985,-4.348999 0.959991,-7.199982c-0.118011,-0.362 -0.610016,-0.350006 -0.640015,-0.800018c-5.692993,-0.520996 -6.349976,3.997009 -10.559998,4.960022c-0.378998,-1.945007 3.011017,-4.943024 0.960022,-6.880005c-1.012024,-0.955002 -3.494019,-0.364014 -5.120026,-0.160004c0.107025,-2.613007 -0.253998,-4.759003 -2.079987,-5.440002c0.316986,-1.964005 -1.824005,-2.399002 -2.080017,-3.679993c-0.186981,-0.932007 0.733002,-3.140015 1.280029,-4.320007c1.750977,-3.781006 4.264984,-4.886002 7.359985,-7.839005c2.473999,-2.360992 3.608002,-4.414001 6.23999,-5.759995c2.695007,-3.524002 6.515015,-6.802002 10.400024,-9.919006c3.259979,-2.615997 6.009979,-5.929001 8.958984,-8.639999c6.256012,-5.75 11.464996,-12.386002 17.279999,-17.759003c1.358002,-1.25499 2.902008,-2.399994 4.160004,-3.839996c1.134003,-1.297989 2.479004,-3.291992 4.799988,-2.720001c-0.139984,2.593002 1.088013,3.818008 2.240021,5.12001c-0.796997,3.362 -4.251007,4.069 -3.839996,8.639999c3.491974,1.485001 4.452972,-2.098007 6.399994,-3.200012c0.915985,2.977005 4.042999,3.743011 5.919006,5.76001c0.692993,0 1.386993,0 2.079987,0c-1.423004,4.651001 3.458008,4.660004 6.880005,5.279999c0.730988,0.496002 0.666992,1.787003 1.279999,2.399994c-0.872009,0.860001 -1.158997,2.575012 -0.480011,4c1.162018,1.031998 4.653015,-0.015991 6.080017,-0.799988c2.075989,-1.141006 3.802979,-3.85701 5.440002,-5.920013c3.440002,-4.334991 6.149994,-8.974991 9.759979,-12.959991c0.959015,-1.059998 1.882019,-2.028 2.720001,-3.040009c1.596008,-1.926987 2.854004,-4.475998 5.600006,-5.279999c-0.083008,1.743011 -1.166992,3.294998 -0.480011,5.279999c2.984009,1.912003 4.318024,-1.534988 5.919006,-2.559998c0.259003,2.824005 1.516998,3.646011 4.320007,4.160004c0.18399,1.996994 1.59201,4.026001 3.359985,4.960007c-0.667999,3.397995 -5.879974,5.078995 -3.519989,9.439987c5.213013,1.310013 5.479004,-3.687988 8.640015,-4.959991c1.036987,0.382996 2.771973,1.11499 4,0.319992c0.565979,2.100006 2.046967,3.286011 3.519989,4.480011c1.836975,0.11499 3.059021,-0.032013 4.159973,-0.800003c2.463013,-1.718002 4.629028,-5.222 6.559998,-7.839996c2.064026,-2.799011 4.004028,-5.853012 6.080017,-8.160004c5.541992,-6.160004 11.27301,-11.723007 16.320007,-18.399002c0.65802,-0.869995 1.028015,-2.440994 2.400024,-2.559998c0.638977,0.515991 0.237976,1.123001 0.320007,2.23999c1.81897,1.667007 4.350952,1.132004 5.759949,0c2.843018,-2.284988 5.913025,-8.052994 8.480042,-9.919998c0.265015,-0.199997 0.449036,-0.423996 1.117981,-0.324997zm-1.119995,40.639008c0,2.880005 0,5.76001 0,8.639999c4.825989,0.424011 10.213013,-1.093994 12.640015,1.600006c1.993958,2.212006 1.119995,8.664001 1.119995,13.438995c0,4.723999 0,9.354004 0,12.959c-5.166016,-6.725998 -11.098999,-11.451996 -23.359009,-10.559998c-11.723022,0.852997 -20.156006,10.391998 -22.878967,21.598999c-3.052002,12.55899 -0.997009,27.996002 5.918945,35.998993c4.801025,5.556 12.274048,9.330017 23.200012,8.480011c8.570007,-0.666992 13.638,-5.820007 17.119995,-11.360016c0,3.146027 0,6.29303 0,9.440002c9.707031,0 19.413025,0 29.119019,0c0,-3.039978 0,-6.079987 0,-9.119995c-4.200012,-0.320007 -10.13501,1.02002 -12.320007,-2.079987c-1.172974,-1.664001 -0.960022,-5.605011 -0.960022,-8.959991c0,-23.404022 0,-48.277008 0,-70.558014c-9.812988,0 -19.625977,0 -29.438965,0c-0.187012,0.027985 -0.174011,0.25499 -0.161011,0.481995zm-66.717987,71.837982c0,-4.218994 0,-8.888 0,-13.119995c0,-9.026001 0.824005,-18.100006 -2.720001,-23.520004c-4.846008,-7.408997 -16.186005,-10 -28.958984,-9.119995c-11.538025,0.794998 -23.488007,6.466003 -21.919006,19.520004c1.06601,8.868988 15.080994,12.035004 19.199982,3.679993c2.755005,-5.587997 -0.815002,-11.904007 -6.879974,-11.199997c5.931,-9.270004 28.789978,-4.807999 26.398987,8.160004c-0.388,2.103989 -1.863007,3.923996 -3.519989,4.959c-5.016022,3.135986 -12.64502,3.923981 -18.720001,5.600006c-9.574005,2.641998 -20.835022,7.556 -19.83902,20.478973c0.656006,8.52002 7.831024,14.287018 17.600006,14.880005c12.213989,0.740021 19.462006,-3.565979 23.679016,-10.561005c0.526978,2.473022 1.100983,4.71402 2.399994,6.240021c4.231995,4.971008 16.375,5.875 22.878998,2.399994c7.059021,-3.772003 6.542969,-12.67099 6.719971,-22.559998c-2.985962,0 -5.972961,0 -8.958984,0c-0.645996,6.019989 2.40802,15.73999 -5.119995,14.878998c-2.917999,-2.153992 -2.240997,-6.826996 -2.240997,-10.716003zm170.076019,-19.999985c1.927979,4.404007 9.366028,6.521011 14.559998,3.999985c1.413025,-0.686981 3.075989,-2.275986 3.840027,-3.679993c3.070007,-5.644989 0.46698,-13.052002 -2.400024,-16.638992c-5.48999,-6.869003 -14.635986,-10.317001 -27.359009,-9.440002c-13.833008,0.953995 -22.958008,8.863007 -27.359009,19.358994c-2.454956,5.853012 -3.445984,12.871002 -2.399963,20c2.617004,17.82901 20.344971,31.341003 41.278992,25.600006c11.90802,-3.266998 18.835999,-11.463013 19.359985,-26.880005c-3.627014,0 -7.252991,0 -10.880005,0c-0.529968,3.772003 -0.838989,7.230011 -2.23999,10.080017c-3.250977,6.613983 -13.393982,8.960999 -20.31897,4.799988c-8.042053,-4.832001 -10.77002,-18.184998 -8,-29.438995c1.912964,-7.770004 7.607971,-14.042999 15.358948,-14.719009c6.399048,-0.557999 11.188049,1.126007 13.600037,4.639999c-5.751038,0.300003 -9.723022,6.192001 -7.041016,12.318008z" stroke="#231F20" clip-rule="evenodd" fill-rule="evenodd"/>
		<path id="svg_3" d="m460.65271,46.263184c9.653015,0 19.30603,0 28.958984,0c0,13.707001 0,27.41301 0,41.119003c4.606995,-6.774994 9.015015,-13.759995 19.999023,-14.559998c10.661011,-0.776001 20.150024,4.218002 20.960022,14.720001c0.729004,9.458008 -0.237,19.225006 0,29.118988c0.091003,3.798004 -0.261047,8.265015 1.599976,9.920013c2.47998,2.208008 8.640991,0.917999 12.31897,1.279999c0,3.040009 0,6.079987 0,9.118988c-13.172974,0 -26.345947,0 -39.518982,0c0,-3.039001 0,-6.078979 0,-9.118988c3.630005,-0.162018 7.416992,0.365997 8.960022,-1.601013c1.219971,-1.556 0.959961,-5.565979 0.959961,-8.640015c-0.000977,-3.445984 0,-6.811981 0,-9.599976c-0.000977,-12.22702 2.415039,-25.588013 -9.440002,-25.759003c-6.862976,-0.099014 -13.780945,5.358994 -15.358948,11.839996c-1.45105,5.958984 -0.479004,16.209991 -0.479004,23.838989c0,2.671997 -0.261047,5.804016 0.479004,7.52002c1.175964,2.724976 5.070007,2.296997 9.438965,2.399994c0,3.040009 0,6.079987 0,9.118988c-13.013,0 -26.024963,0 -39.039001,0c0,-3.039001 0,-6.078979 0,-9.118988c4.414001,-0.201019 11.349976,0.945007 13.119995,-2.399994c1.570984,-2.971008 0.799988,-11.896027 0.799988,-16.319c0.001038,-14.377014 0,-28.331009 0,-42.879013c0,-2.899994 0.163025,-6.307999 -0.479004,-8c-1.565002,-4.117996 -8.644958,-2.472992 -13.440002,-3.039993c0,-2.826004 0,-5.653 0,-8.479004c-0.013977,-0.22699 -0.026001,-0.452988 0.160034,-0.479996z" stroke="#231F20" clip-rule="evenodd" fill-rule="evenodd"/>
		<path id="svg_4" d="m415.853699,50.42218c3.252991,0 6.505981,0 9.76001,0c0,8.479996 0,16.959991 0,25.438995c5.70697,0.373001 12.106018,0.054001 18.080017,0.160004c0,3.199997 0,6.399994 0,9.599991c-5.973999,0 -11.946045,0 -17.920044,0c-0.289001,9.088013 -0.159973,20.377014 -0.159973,30.559998c0,3.512024 -0.134033,7.320007 0.960022,9.279022c1.315002,2.355988 5.997986,3.061981 8,0.959991c3.076965,-3.229004 1.056946,-12.632019 1.759949,-18.239014c3.253052,0 6.506042,0 9.76001,0c0.647034,10.376007 0.276001,20.166016 -4.320007,25.600006c-6.709961,7.93399 -23.197998,6.076996 -28.79895,-1.760986c-3.575012,-5.002014 -3.040039,-13.438019 -3.040039,-21.759003c0,-8.546997 0,-16.332001 0,-24.640015c-4.372986,0 -8.747009,0 -13.119995,0c0,-3.199997 0,-6.399994 0,-9.599991c13.893005,-0.720001 18.05603,-11.169998 18.718994,-25.119003c0.138,-0.128983 0.095032,-0.437988 0.320007,-0.479996z" stroke="#231F20" clip-rule="evenodd" fill-rule="evenodd"/>
		<path id="svg_5" d="m728.805664,50.42218c3.253052,0 6.506958,0 9.76001,0c0,8.479996 0,16.959991 0,25.438995c5.707031,0.373001 12.105957,0.054001 18.078979,0.160004c0,3.199997 0,6.399994 0,9.599991c-5.973022,0 -11.946045,0 -17.918945,0c-0.289063,9.088013 -0.160034,20.377014 -0.160034,30.559998c0,3.512024 -0.134033,7.320007 0.959961,9.279022c1.315063,2.355988 5.99707,3.060974 8,0.959991c3.077026,-3.229004 1.057007,-12.632019 1.76001,-18.239014c3.253052,0 6.506958,0 9.76001,0c0.646973,10.376007 0.275024,20.166016 -4.319946,25.600006c-6.708984,7.933014 -23.197998,6.078003 -28.799072,-1.760986c-3.573975,-5.001007 -3.041016,-13.438019 -3.039917,-21.759003c0.000977,-8.546997 -0.001099,-16.332001 0,-24.640015c-4.373047,0 -8.746094,0 -13.119019,0c0,-3.199997 0,-6.399994 0,-9.599991c13.892944,-0.720001 18.055908,-11.169998 18.718994,-25.119003c0.135986,-0.128983 0.093994,-0.437988 0.31897,-0.479996z" stroke="#231F20" clip-rule="evenodd" fill-rule="evenodd"/>
		<path id="svg_6" d="m616.968689,108.821182c-14.825989,0 -29.651978,0 -44.479004,0c0.192017,9.165009 2.395996,16.049988 8.479004,19.040009c4.606018,2.264008 10.492004,2.078003 14.559998,0.319c5.354004,-2.313019 8.02301,-7.313995 9.76001,-13.119019c3.786011,0 7.572998,0 11.359009,0c-2.416016,15.184021 -12.796997,24.110016 -30.559021,23.83902c-12.072998,-0.18399 -22.354004,-5.666992 -27.52002,-14.718994c-5.782959,-10.136017 -4.918945,-24.868011 -0.319946,-34.240021c4.651001,-9.477005 12.404968,-16.209 25.599976,-17.119995c12.070984,-0.832001 19.791016,3.256989 25.119019,9.440002c5.435974,6.306 8.606995,14.601013 8.000977,26.559998zm-32.158997,-26.399002c-8.958984,0.604004 -11.89801,8.078003 -12.640015,17.279007c9.06604,0 18.132996,0 27.199036,0c-0.833984,-9.796005 -4.087036,-17.985001 -14.559021,-17.279007z" stroke="#231F20" clip-rule="evenodd" fill-rule="evenodd"/>
		<path id="svg_7" d="m694.56665,114.421188c2.985962,0 5.973999,0 8.959961,0c-0.700928,7.214996 0.520996,12.860992 -2.079956,17.919006c-4.438965,8.636993 -22.990967,8.785004 -27.999023,1.440002c-1.010986,-1.481995 -1.395996,-3.463013 -1.919922,-5.601013c-3.692017,5.595001 -9.118042,10.162994 -18.080078,10.720001c-5.557983,0.346008 -11.557007,-0.457001 -15.519958,-2.880005c-4.786011,-2.924988 -8.328003,-7.945984 -7.52002,-15.838989c0.455017,-4.444 3.013,-7.56601 5.280029,-9.601013c6.504944,-5.835999 16.010925,-6.951996 25.758972,-9.759003c6.05896,-1.744995 13.657959,-4.615997 10.399048,-13.119995c-3.293091,-8.594986 -20.727051,-11.181992 -25.919067,-2.87999c3.937988,0.216003 5.685059,1.376999 6.719971,3.199997c2.459106,4.326996 -0.264893,9.846985 -3.679932,11.679993c-7.561035,4.058014 -16.003052,-1.738983 -15.359009,-10.719986c0.752991,-10.514008 11.654968,-15.51001 22.718994,-16.160004c15.613037,-0.917007 28.937988,3.117996 30.559937,16.319992c1.292114,10.524994 -0.41394,23.266998 0.320068,34.878998c0.187988,2.979004 0.630005,5.125 2.719971,5.438995c6.81604,1.028015 4.095093,-9.319 4.640015,-15.036987zm-31.199951,-5.76001c-5.139038,2.25 -11.244995,3.85199 -13.119019,8.799988c-1.657959,4.378998 0.518066,8.748016 3.359009,10.240021c4.390991,2.304993 10.588013,0.536987 13.280029,-2.080017c4.541016,-4.414978 4.853027,-12.615997 4.31897,-20.639984c0.000977,-0.08902 -0.130005,-0.182007 -0.160034,0c-2.335938,0.940002 -4.85498,2.444 -7.678955,3.679993z" stroke="#231F20" clip-rule="evenodd" fill-rule="evenodd"/>
		<path id="svg_8" d="m824.16272,81.782181c-9.782959,-3.378006 -16.968994,5.257004 -18.239014,14.23999c-0.854004,6.039001 -0.319946,14.891998 -0.319946,22.080017c0,2.378998 -0.19104,5.138 0.47998,6.879974c1.604004,4.164001 8.439941,2.542023 13.278931,2.880005c0,3.040009 0,6.080017 0,9.119019c-14.665894,0 -29.333008,0 -43.998901,0c0,-3.039001 0,-6.07901 0,-9.119019c6.476929,-0.162994 13.071899,1.309021 13.76001,-5.119995c0.587891,-5.497009 0,-11.125 0,-18.398987c0,-2.878998 0,-5.880005 0,-9.119995c0,-4.02002 0.457886,-8.008011 -1.119995,-9.76001c-2.350098,-2.608002 -8.434082,-1.220001 -12.640015,-1.600006c0,-3.039993 0,-6.080002 0,-9.119995c10.079956,0 20.159912,0 30.239014,0c0,2.880005 0,5.759995 0,8.639999c3.454956,-5.375 7.635986,-11.429001 17.599976,-10.559998c7.593018,0.662003 13.078003,6.890991 13.119995,14.720001c0.041992,7.986008 -7.554077,16.042007 -16,11.680008c-6.119995,-3.161011 -6.283081,-12.521011 -0.640015,-15.83902c1.286987,-0.758987 2.67395,-1.010986 4.47998,-1.60199z" stroke="#231F20" clip-rule="evenodd" fill-rule="evenodd"/>
		<path id="svg_9" d="m907.040649,108.821182c-14.82605,0 -29.651978,0 -44.479004,0c0.192017,9.165009 2.395996,16.049988 8.479004,19.040009c4.605957,2.264008 10.491943,2.078003 14.560059,0.319c5.355957,-2.313995 8.021973,-7.313019 9.759888,-13.119019c3.786011,0 7.572998,0 11.359009,0c-2.415894,15.184021 -12.796997,24.110016 -30.55896,23.83902c-12.073975,-0.18399 -22.354004,-5.666992 -27.52002,-14.718994c-5.782959,-10.13501 -4.918945,-24.868011 -0.319946,-34.240021c4.651001,-9.477005 12.405029,-16.209 25.599976,-17.119995c12.071045,-0.832001 19.791016,3.256989 25.119019,9.440002c5.436035,6.306 8.607056,14.601013 8.000977,26.559998zm-32.158936,-26.399002c-8.958008,0.604004 -11.896973,8.078003 -12.640015,17.279007c9.06604,0 18.133057,0 27.198975,0c-0.833008,-9.796005 -4.086914,-17.985001 -14.55896,-17.279007z" stroke="#231F20" clip-rule="evenodd" fill-rule="evenodd"/>
		<path id="svg_10" d="m182.419678,77.782181c7.679016,-1.080002 12.999023,3.502991 15.52002,8.639999c5.265991,10.728989 2.425964,27.354996 -6.559998,32.639999c-2.708008,1.592987 -7.968018,2.858002 -12,1.278992c-10.228027,-4.005005 -11.726013,-28.197998 -5.439026,-37.278c1.641052,-2.371979 4.539001,-4.72699 8.479004,-5.280991z" stroke="#231F20" clip-rule="evenodd" fill-rule="evenodd"/>
		<path id="svg_11" d="m103.541718,98.901199c0.946991,8.806 -0.152008,17.080994 -4.640015,20.958984c-5.21698,4.509003 -16.178986,3.466003 -16.639984,-4.639984c-0.520996,-9.162994 10.877991,-11.221008 17.278992,-14.23999c1.544983,-0.72702 2.92099,-1.671021 4.001007,-2.07901z" stroke="#231F20" clip-rule="evenodd" fill-rule="evenodd"/>
	</g>
</svg>
